<mxfile host="app.diagrams.net" modified="2024-02-13T08:30:05.144Z" agent="Mozilla/5.0 (Macintosh; Intel Mac OS X 10_15_7) AppleWebKit/537.36 (KHTML, like Gecko) Chrome/121.0.0.0 Safari/537.36" etag="AKdOYY8-9haxesV6FgOO" version="23.1.2" type="device">
  <diagram name="Page-1" id="CLZZfI83gvPv3_pRNXy1">
    <mxGraphModel dx="3409" dy="2527" grid="1" gridSize="10" guides="1" tooltips="1" connect="1" arrows="1" fold="1" page="1" pageScale="1" pageWidth="827" pageHeight="1169" math="0" shadow="0">
      <root>
        <mxCell id="0" />
        <mxCell id="1" parent="0" />
        <mxCell id="LgkqM_oCLmh2W4dwjlVm-52" style="edgeStyle=orthogonalEdgeStyle;rounded=0;orthogonalLoop=1;jettySize=auto;html=1;endArrow=none;endFill=0;" parent="1" source="LgkqM_oCLmh2W4dwjlVm-75" target="LgkqM_oCLmh2W4dwjlVm-49" edge="1">
          <mxGeometry relative="1" as="geometry" />
        </mxCell>
        <mxCell id="LgkqM_oCLmh2W4dwjlVm-54" value="1,n" style="edgeLabel;html=1;align=center;verticalAlign=middle;resizable=0;points=[];" parent="LgkqM_oCLmh2W4dwjlVm-52" vertex="1" connectable="0">
          <mxGeometry x="0.8033" y="2" relative="1" as="geometry">
            <mxPoint x="2" y="42" as="offset" />
          </mxGeometry>
        </mxCell>
        <mxCell id="LgkqM_oCLmh2W4dwjlVm-55" style="edgeStyle=orthogonalEdgeStyle;rounded=0;orthogonalLoop=1;jettySize=auto;html=1;endArrow=none;endFill=0;" parent="1" source="LgkqM_oCLmh2W4dwjlVm-95" target="LgkqM_oCLmh2W4dwjlVm-11" edge="1">
          <mxGeometry relative="1" as="geometry" />
        </mxCell>
        <mxCell id="LgkqM_oCLmh2W4dwjlVm-57" value="0,1" style="edgeLabel;html=1;align=center;verticalAlign=middle;resizable=0;points=[];rotation=0;" parent="LgkqM_oCLmh2W4dwjlVm-55" vertex="1" connectable="0">
          <mxGeometry x="0.8727" y="-1" relative="1" as="geometry">
            <mxPoint x="-76" y="-1" as="offset" />
          </mxGeometry>
        </mxCell>
        <mxCell id="LgkqM_oCLmh2W4dwjlVm-67" style="edgeStyle=orthogonalEdgeStyle;rounded=0;orthogonalLoop=1;jettySize=auto;html=1;endArrow=none;endFill=0;" parent="1" source="LgkqM_oCLmh2W4dwjlVm-82" target="LgkqM_oCLmh2W4dwjlVm-34" edge="1">
          <mxGeometry relative="1" as="geometry" />
        </mxCell>
        <mxCell id="LgkqM_oCLmh2W4dwjlVm-69" value="0,n" style="edgeLabel;html=1;align=center;verticalAlign=middle;resizable=0;points=[];" parent="LgkqM_oCLmh2W4dwjlVm-67" vertex="1" connectable="0">
          <mxGeometry x="0.8659" relative="1" as="geometry">
            <mxPoint x="95" y="5" as="offset" />
          </mxGeometry>
        </mxCell>
        <mxCell id="LgkqM_oCLmh2W4dwjlVm-74" value="1,1" style="edgeStyle=orthogonalEdgeStyle;rounded=0;orthogonalLoop=1;jettySize=auto;html=1;endArrow=none;endFill=0;" parent="1" source="LgkqM_oCLmh2W4dwjlVm-93" target="LgkqM_oCLmh2W4dwjlVm-46" edge="1">
          <mxGeometry relative="1" as="geometry">
            <Array as="points">
              <mxPoint x="130" y="400" />
              <mxPoint x="130" y="400" />
            </Array>
          </mxGeometry>
        </mxCell>
        <mxCell id="LgkqM_oCLmh2W4dwjlVm-5" value="User" style="swimlane;fontStyle=0;childLayout=stackLayout;horizontal=1;startSize=26;fillColor=none;horizontalStack=0;resizeParent=1;resizeParentMax=0;resizeLast=0;collapsible=1;marginBottom=0;whiteSpace=wrap;html=1;" parent="1" vertex="1">
          <mxGeometry x="120" y="60" width="140" height="156" as="geometry" />
        </mxCell>
        <mxCell id="LgkqM_oCLmh2W4dwjlVm-6" value="id_user" style="text;strokeColor=none;fillColor=none;align=left;verticalAlign=top;spacingLeft=4;spacingRight=4;overflow=hidden;rotatable=0;points=[[0,0.5],[1,0.5]];portConstraint=eastwest;whiteSpace=wrap;html=1;" parent="LgkqM_oCLmh2W4dwjlVm-5" vertex="1">
          <mxGeometry y="26" width="140" height="26" as="geometry" />
        </mxCell>
        <mxCell id="LgkqM_oCLmh2W4dwjlVm-7" value="name" style="text;strokeColor=none;fillColor=none;align=left;verticalAlign=top;spacingLeft=4;spacingRight=4;overflow=hidden;rotatable=0;points=[[0,0.5],[1,0.5]];portConstraint=eastwest;whiteSpace=wrap;html=1;" parent="LgkqM_oCLmh2W4dwjlVm-5" vertex="1">
          <mxGeometry y="52" width="140" height="26" as="geometry" />
        </mxCell>
        <mxCell id="LgkqM_oCLmh2W4dwjlVm-8" value="surname&lt;br&gt;" style="text;strokeColor=none;fillColor=none;align=left;verticalAlign=top;spacingLeft=4;spacingRight=4;overflow=hidden;rotatable=0;points=[[0,0.5],[1,0.5]];portConstraint=eastwest;whiteSpace=wrap;html=1;" parent="LgkqM_oCLmh2W4dwjlVm-5" vertex="1">
          <mxGeometry y="78" width="140" height="26" as="geometry" />
        </mxCell>
        <mxCell id="LgkqM_oCLmh2W4dwjlVm-9" value="email" style="text;strokeColor=none;fillColor=none;align=left;verticalAlign=top;spacingLeft=4;spacingRight=4;overflow=hidden;rotatable=0;points=[[0,0.5],[1,0.5]];portConstraint=eastwest;whiteSpace=wrap;html=1;" parent="LgkqM_oCLmh2W4dwjlVm-5" vertex="1">
          <mxGeometry y="104" width="140" height="26" as="geometry" />
        </mxCell>
        <mxCell id="LgkqM_oCLmh2W4dwjlVm-10" value="password" style="text;strokeColor=none;fillColor=none;align=left;verticalAlign=top;spacingLeft=4;spacingRight=4;overflow=hidden;rotatable=0;points=[[0,0.5],[1,0.5]];portConstraint=eastwest;whiteSpace=wrap;html=1;" parent="LgkqM_oCLmh2W4dwjlVm-5" vertex="1">
          <mxGeometry y="130" width="140" height="26" as="geometry" />
        </mxCell>
        <mxCell id="LgkqM_oCLmh2W4dwjlVm-11" value="Employee" style="swimlane;fontStyle=0;childLayout=stackLayout;horizontal=1;startSize=26;fillColor=none;horizontalStack=0;resizeParent=1;resizeParentMax=0;resizeLast=0;collapsible=1;marginBottom=0;whiteSpace=wrap;html=1;" parent="1" vertex="1">
          <mxGeometry x="650" y="99" width="140" height="78" as="geometry" />
        </mxCell>
        <mxCell id="LgkqM_oCLmh2W4dwjlVm-12" value="id_employee" style="text;strokeColor=none;fillColor=none;align=left;verticalAlign=top;spacingLeft=4;spacingRight=4;overflow=hidden;rotatable=0;points=[[0,0.5],[1,0.5]];portConstraint=eastwest;whiteSpace=wrap;html=1;" parent="LgkqM_oCLmh2W4dwjlVm-11" vertex="1">
          <mxGeometry y="26" width="140" height="26" as="geometry" />
        </mxCell>
        <mxCell id="LgkqM_oCLmh2W4dwjlVm-13" value="id_user" style="text;strokeColor=none;fillColor=none;align=left;verticalAlign=top;spacingLeft=4;spacingRight=4;overflow=hidden;rotatable=0;points=[[0,0.5],[1,0.5]];portConstraint=eastwest;whiteSpace=wrap;html=1;" parent="LgkqM_oCLmh2W4dwjlVm-11" vertex="1">
          <mxGeometry y="52" width="140" height="26" as="geometry" />
        </mxCell>
        <mxCell id="LgkqM_oCLmh2W4dwjlVm-108" value="1,n" style="rounded=0;orthogonalLoop=1;jettySize=auto;html=1;endArrow=none;endFill=0;" parent="1" source="LgkqM_oCLmh2W4dwjlVm-17" target="LgkqM_oCLmh2W4dwjlVm-107" edge="1">
          <mxGeometry relative="1" as="geometry" />
        </mxCell>
        <mxCell id="LgkqM_oCLmh2W4dwjlVm-17" value="Veterinarian" style="swimlane;fontStyle=0;childLayout=stackLayout;horizontal=1;startSize=26;fillColor=none;horizontalStack=0;resizeParent=1;resizeParentMax=0;resizeLast=0;collapsible=1;marginBottom=0;whiteSpace=wrap;html=1;" parent="1" vertex="1">
          <mxGeometry x="-220" y="372" width="140" height="78" as="geometry" />
        </mxCell>
        <mxCell id="LgkqM_oCLmh2W4dwjlVm-18" value="id_veterinarian" style="text;strokeColor=none;fillColor=none;align=left;verticalAlign=top;spacingLeft=4;spacingRight=4;overflow=hidden;rotatable=0;points=[[0,0.5],[1,0.5]];portConstraint=eastwest;whiteSpace=wrap;html=1;" parent="LgkqM_oCLmh2W4dwjlVm-17" vertex="1">
          <mxGeometry y="26" width="140" height="26" as="geometry" />
        </mxCell>
        <mxCell id="LgkqM_oCLmh2W4dwjlVm-19" value="id_user" style="text;strokeColor=none;fillColor=none;align=left;verticalAlign=top;spacingLeft=4;spacingRight=4;overflow=hidden;rotatable=0;points=[[0,0.5],[1,0.5]];portConstraint=eastwest;whiteSpace=wrap;html=1;" parent="LgkqM_oCLmh2W4dwjlVm-17" vertex="1">
          <mxGeometry y="52" width="140" height="26" as="geometry" />
        </mxCell>
        <mxCell id="LgkqM_oCLmh2W4dwjlVm-61" style="edgeStyle=orthogonalEdgeStyle;rounded=0;orthogonalLoop=1;jettySize=auto;html=1;endArrow=none;endFill=0;" parent="1" source="LgkqM_oCLmh2W4dwjlVm-99" target="LgkqM_oCLmh2W4dwjlVm-29" edge="1">
          <mxGeometry relative="1" as="geometry" />
        </mxCell>
        <mxCell id="8m1eBf0mdChbJ9N2UT9T-13" value="1,1" style="edgeLabel;html=1;align=center;verticalAlign=middle;resizable=0;points=[];" vertex="1" connectable="0" parent="LgkqM_oCLmh2W4dwjlVm-61">
          <mxGeometry x="0.0556" y="-1" relative="1" as="geometry">
            <mxPoint as="offset" />
          </mxGeometry>
        </mxCell>
        <mxCell id="LgkqM_oCLmh2W4dwjlVm-20" value="Habitat" style="swimlane;fontStyle=0;childLayout=stackLayout;horizontal=1;startSize=26;fillColor=none;horizontalStack=0;resizeParent=1;resizeParentMax=0;resizeLast=0;collapsible=1;marginBottom=0;whiteSpace=wrap;html=1;" parent="1" vertex="1">
          <mxGeometry x="483" y="792" width="140" height="104" as="geometry" />
        </mxCell>
        <mxCell id="LgkqM_oCLmh2W4dwjlVm-21" value="id_habitat" style="text;strokeColor=none;fillColor=none;align=left;verticalAlign=top;spacingLeft=4;spacingRight=4;overflow=hidden;rotatable=0;points=[[0,0.5],[1,0.5]];portConstraint=eastwest;whiteSpace=wrap;html=1;" parent="LgkqM_oCLmh2W4dwjlVm-20" vertex="1">
          <mxGeometry y="26" width="140" height="26" as="geometry" />
        </mxCell>
        <mxCell id="LgkqM_oCLmh2W4dwjlVm-22" value="name" style="text;strokeColor=none;fillColor=none;align=left;verticalAlign=top;spacingLeft=4;spacingRight=4;overflow=hidden;rotatable=0;points=[[0,0.5],[1,0.5]];portConstraint=eastwest;whiteSpace=wrap;html=1;" parent="LgkqM_oCLmh2W4dwjlVm-20" vertex="1">
          <mxGeometry y="52" width="140" height="26" as="geometry" />
        </mxCell>
        <mxCell id="LgkqM_oCLmh2W4dwjlVm-23" value="description" style="text;strokeColor=none;fillColor=none;align=left;verticalAlign=top;spacingLeft=4;spacingRight=4;overflow=hidden;rotatable=0;points=[[0,0.5],[1,0.5]];portConstraint=eastwest;whiteSpace=wrap;html=1;" parent="LgkqM_oCLmh2W4dwjlVm-20" vertex="1">
          <mxGeometry y="78" width="140" height="26" as="geometry" />
        </mxCell>
        <mxCell id="LgkqM_oCLmh2W4dwjlVm-64" style="edgeStyle=orthogonalEdgeStyle;rounded=0;orthogonalLoop=1;jettySize=auto;html=1;endArrow=none;endFill=0;" parent="1" source="LgkqM_oCLmh2W4dwjlVm-103" target="LgkqM_oCLmh2W4dwjlVm-39" edge="1">
          <mxGeometry relative="1" as="geometry" />
        </mxCell>
        <mxCell id="LgkqM_oCLmh2W4dwjlVm-66" value="0,n" style="edgeLabel;html=1;align=center;verticalAlign=middle;resizable=0;points=[];" parent="LgkqM_oCLmh2W4dwjlVm-64" vertex="1" connectable="0">
          <mxGeometry x="0.5844" relative="1" as="geometry">
            <mxPoint y="-12" as="offset" />
          </mxGeometry>
        </mxCell>
        <mxCell id="LgkqM_oCLmh2W4dwjlVm-29" value="Animal" style="swimlane;fontStyle=0;childLayout=stackLayout;horizontal=1;startSize=26;fillColor=none;horizontalStack=0;resizeParent=1;resizeParentMax=0;resizeLast=0;collapsible=1;marginBottom=0;whiteSpace=wrap;html=1;" parent="1" vertex="1">
          <mxGeometry x="60" y="950" width="140" height="130" as="geometry" />
        </mxCell>
        <mxCell id="LgkqM_oCLmh2W4dwjlVm-30" value="id_animal" style="text;strokeColor=none;fillColor=none;align=left;verticalAlign=top;spacingLeft=4;spacingRight=4;overflow=hidden;rotatable=0;points=[[0,0.5],[1,0.5]];portConstraint=eastwest;whiteSpace=wrap;html=1;" parent="LgkqM_oCLmh2W4dwjlVm-29" vertex="1">
          <mxGeometry y="26" width="140" height="26" as="geometry" />
        </mxCell>
        <mxCell id="LgkqM_oCLmh2W4dwjlVm-31" value="name" style="text;strokeColor=none;fillColor=none;align=left;verticalAlign=top;spacingLeft=4;spacingRight=4;overflow=hidden;rotatable=0;points=[[0,0.5],[1,0.5]];portConstraint=eastwest;whiteSpace=wrap;html=1;" parent="LgkqM_oCLmh2W4dwjlVm-29" vertex="1">
          <mxGeometry y="52" width="140" height="26" as="geometry" />
        </mxCell>
        <mxCell id="LgkqM_oCLmh2W4dwjlVm-32" value="race" style="text;strokeColor=none;fillColor=none;align=left;verticalAlign=top;spacingLeft=4;spacingRight=4;overflow=hidden;rotatable=0;points=[[0,0.5],[1,0.5]];portConstraint=eastwest;whiteSpace=wrap;html=1;" parent="LgkqM_oCLmh2W4dwjlVm-29" vertex="1">
          <mxGeometry y="78" width="140" height="26" as="geometry" />
        </mxCell>
        <mxCell id="LgkqM_oCLmh2W4dwjlVm-33" value="id_habitat" style="text;strokeColor=none;fillColor=none;align=left;verticalAlign=top;spacingLeft=4;spacingRight=4;overflow=hidden;rotatable=0;points=[[0,0.5],[1,0.5]];portConstraint=eastwest;whiteSpace=wrap;html=1;" parent="LgkqM_oCLmh2W4dwjlVm-29" vertex="1">
          <mxGeometry y="104" width="140" height="26" as="geometry" />
        </mxCell>
        <mxCell id="LgkqM_oCLmh2W4dwjlVm-135" style="edgeStyle=orthogonalEdgeStyle;rounded=0;orthogonalLoop=1;jettySize=auto;html=1;endArrow=none;endFill=0;" parent="1" source="LgkqM_oCLmh2W4dwjlVm-136" target="LgkqM_oCLmh2W4dwjlVm-20" edge="1">
          <mxGeometry relative="1" as="geometry">
            <Array as="points">
              <mxPoint x="-560" y="1130" />
              <mxPoint x="553" y="1130" />
            </Array>
          </mxGeometry>
        </mxCell>
        <mxCell id="8m1eBf0mdChbJ9N2UT9T-9" value="0,n" style="edgeLabel;html=1;align=center;verticalAlign=middle;resizable=0;points=[];" vertex="1" connectable="0" parent="LgkqM_oCLmh2W4dwjlVm-135">
          <mxGeometry x="-0.083" relative="1" as="geometry">
            <mxPoint as="offset" />
          </mxGeometry>
        </mxCell>
        <mxCell id="LgkqM_oCLmh2W4dwjlVm-34" value="Review" style="swimlane;fontStyle=0;childLayout=stackLayout;horizontal=1;startSize=26;fillColor=none;horizontalStack=0;resizeParent=1;resizeParentMax=0;resizeLast=0;collapsible=1;marginBottom=0;whiteSpace=wrap;html=1;" parent="1" vertex="1">
          <mxGeometry x="-483" y="73" width="140" height="130" as="geometry" />
        </mxCell>
        <mxCell id="LgkqM_oCLmh2W4dwjlVm-35" value="id_review" style="text;strokeColor=none;fillColor=none;align=left;verticalAlign=top;spacingLeft=4;spacingRight=4;overflow=hidden;rotatable=0;points=[[0,0.5],[1,0.5]];portConstraint=eastwest;whiteSpace=wrap;html=1;" parent="LgkqM_oCLmh2W4dwjlVm-34" vertex="1">
          <mxGeometry y="26" width="140" height="26" as="geometry" />
        </mxCell>
        <mxCell id="LgkqM_oCLmh2W4dwjlVm-36" value="pseudonym" style="text;strokeColor=none;fillColor=none;align=left;verticalAlign=top;spacingLeft=4;spacingRight=4;overflow=hidden;rotatable=0;points=[[0,0.5],[1,0.5]];portConstraint=eastwest;whiteSpace=wrap;html=1;" parent="LgkqM_oCLmh2W4dwjlVm-34" vertex="1">
          <mxGeometry y="52" width="140" height="26" as="geometry" />
        </mxCell>
        <mxCell id="LgkqM_oCLmh2W4dwjlVm-37" value="comment" style="text;strokeColor=none;fillColor=none;align=left;verticalAlign=top;spacingLeft=4;spacingRight=4;overflow=hidden;rotatable=0;points=[[0,0.5],[1,0.5]];portConstraint=eastwest;whiteSpace=wrap;html=1;" parent="LgkqM_oCLmh2W4dwjlVm-34" vertex="1">
          <mxGeometry y="78" width="140" height="26" as="geometry" />
        </mxCell>
        <mxCell id="LgkqM_oCLmh2W4dwjlVm-38" value="valid" style="text;strokeColor=none;fillColor=none;align=left;verticalAlign=top;spacingLeft=4;spacingRight=4;overflow=hidden;rotatable=0;points=[[0,0.5],[1,0.5]];portConstraint=eastwest;whiteSpace=wrap;html=1;" parent="LgkqM_oCLmh2W4dwjlVm-34" vertex="1">
          <mxGeometry y="104" width="140" height="26" as="geometry" />
        </mxCell>
        <mxCell id="LgkqM_oCLmh2W4dwjlVm-39" value="Report" style="swimlane;fontStyle=0;childLayout=stackLayout;horizontal=1;startSize=26;fillColor=none;horizontalStack=0;resizeParent=1;resizeParentMax=0;resizeLast=0;collapsible=1;marginBottom=0;whiteSpace=wrap;html=1;" parent="1" vertex="1">
          <mxGeometry x="-400" y="750" width="140" height="182" as="geometry" />
        </mxCell>
        <mxCell id="LgkqM_oCLmh2W4dwjlVm-40" value="id_report" style="text;strokeColor=none;fillColor=none;align=left;verticalAlign=top;spacingLeft=4;spacingRight=4;overflow=hidden;rotatable=0;points=[[0,0.5],[1,0.5]];portConstraint=eastwest;whiteSpace=wrap;html=1;" parent="LgkqM_oCLmh2W4dwjlVm-39" vertex="1">
          <mxGeometry y="26" width="140" height="26" as="geometry" />
        </mxCell>
        <mxCell id="LgkqM_oCLmh2W4dwjlVm-41" value="animal_state" style="text;strokeColor=none;fillColor=none;align=left;verticalAlign=top;spacingLeft=4;spacingRight=4;overflow=hidden;rotatable=0;points=[[0,0.5],[1,0.5]];portConstraint=eastwest;whiteSpace=wrap;html=1;" parent="LgkqM_oCLmh2W4dwjlVm-39" vertex="1">
          <mxGeometry y="52" width="140" height="26" as="geometry" />
        </mxCell>
        <mxCell id="LgkqM_oCLmh2W4dwjlVm-42" value="food_offered" style="text;strokeColor=none;fillColor=none;align=left;verticalAlign=top;spacingLeft=4;spacingRight=4;overflow=hidden;rotatable=0;points=[[0,0.5],[1,0.5]];portConstraint=eastwest;whiteSpace=wrap;html=1;" parent="LgkqM_oCLmh2W4dwjlVm-39" vertex="1">
          <mxGeometry y="78" width="140" height="26" as="geometry" />
        </mxCell>
        <mxCell id="LgkqM_oCLmh2W4dwjlVm-43" value="food_amount" style="text;strokeColor=none;fillColor=none;align=left;verticalAlign=top;spacingLeft=4;spacingRight=4;overflow=hidden;rotatable=0;points=[[0,0.5],[1,0.5]];portConstraint=eastwest;whiteSpace=wrap;html=1;" parent="LgkqM_oCLmh2W4dwjlVm-39" vertex="1">
          <mxGeometry y="104" width="140" height="26" as="geometry" />
        </mxCell>
        <mxCell id="LgkqM_oCLmh2W4dwjlVm-44" value="date" style="text;strokeColor=none;fillColor=none;align=left;verticalAlign=top;spacingLeft=4;spacingRight=4;overflow=hidden;rotatable=0;points=[[0,0.5],[1,0.5]];portConstraint=eastwest;whiteSpace=wrap;html=1;" parent="LgkqM_oCLmh2W4dwjlVm-39" vertex="1">
          <mxGeometry y="130" width="140" height="26" as="geometry" />
        </mxCell>
        <mxCell id="LgkqM_oCLmh2W4dwjlVm-45" value="detail" style="text;strokeColor=none;fillColor=none;align=left;verticalAlign=top;spacingLeft=4;spacingRight=4;overflow=hidden;rotatable=0;points=[[0,0.5],[1,0.5]];portConstraint=eastwest;whiteSpace=wrap;html=1;" parent="LgkqM_oCLmh2W4dwjlVm-39" vertex="1">
          <mxGeometry y="156" width="140" height="26" as="geometry" />
        </mxCell>
        <mxCell id="LgkqM_oCLmh2W4dwjlVm-114" style="edgeStyle=orthogonalEdgeStyle;rounded=0;orthogonalLoop=1;jettySize=auto;html=1;endArrow=none;endFill=0;" parent="1" source="LgkqM_oCLmh2W4dwjlVm-46" target="LgkqM_oCLmh2W4dwjlVm-113" edge="1">
          <mxGeometry relative="1" as="geometry" />
        </mxCell>
        <mxCell id="8m1eBf0mdChbJ9N2UT9T-17" value="1,n" style="edgeLabel;html=1;align=center;verticalAlign=middle;resizable=0;points=[];" vertex="1" connectable="0" parent="LgkqM_oCLmh2W4dwjlVm-114">
          <mxGeometry x="-0.197" y="1" relative="1" as="geometry">
            <mxPoint as="offset" />
          </mxGeometry>
        </mxCell>
        <mxCell id="LgkqM_oCLmh2W4dwjlVm-117" style="edgeStyle=orthogonalEdgeStyle;rounded=0;orthogonalLoop=1;jettySize=auto;html=1;endArrow=none;endFill=0;" parent="1" source="LgkqM_oCLmh2W4dwjlVm-46" target="LgkqM_oCLmh2W4dwjlVm-116" edge="1">
          <mxGeometry relative="1" as="geometry" />
        </mxCell>
        <mxCell id="8m1eBf0mdChbJ9N2UT9T-15" value="1,n" style="edgeLabel;html=1;align=center;verticalAlign=middle;resizable=0;points=[];" vertex="1" connectable="0" parent="LgkqM_oCLmh2W4dwjlVm-117">
          <mxGeometry x="-0.0807" y="2" relative="1" as="geometry">
            <mxPoint as="offset" />
          </mxGeometry>
        </mxCell>
        <mxCell id="LgkqM_oCLmh2W4dwjlVm-46" value="Admin" style="swimlane;fontStyle=0;childLayout=stackLayout;horizontal=1;startSize=26;fillColor=none;horizontalStack=0;resizeParent=1;resizeParentMax=0;resizeLast=0;collapsible=1;marginBottom=0;whiteSpace=wrap;html=1;" parent="1" vertex="1">
          <mxGeometry x="60" y="501" width="140" height="78" as="geometry" />
        </mxCell>
        <mxCell id="LgkqM_oCLmh2W4dwjlVm-47" value="id_admin" style="text;strokeColor=none;fillColor=none;align=left;verticalAlign=top;spacingLeft=4;spacingRight=4;overflow=hidden;rotatable=0;points=[[0,0.5],[1,0.5]];portConstraint=eastwest;whiteSpace=wrap;html=1;" parent="LgkqM_oCLmh2W4dwjlVm-46" vertex="1">
          <mxGeometry y="26" width="140" height="26" as="geometry" />
        </mxCell>
        <mxCell id="LgkqM_oCLmh2W4dwjlVm-48" value="id_user" style="text;strokeColor=none;fillColor=none;align=left;verticalAlign=top;spacingLeft=4;spacingRight=4;overflow=hidden;rotatable=0;points=[[0,0.5],[1,0.5]];portConstraint=eastwest;whiteSpace=wrap;html=1;" parent="LgkqM_oCLmh2W4dwjlVm-46" vertex="1">
          <mxGeometry y="52" width="140" height="26" as="geometry" />
        </mxCell>
        <mxCell id="LgkqM_oCLmh2W4dwjlVm-49" value="Role" style="swimlane;fontStyle=0;childLayout=stackLayout;horizontal=1;startSize=26;fillColor=none;horizontalStack=0;resizeParent=1;resizeParentMax=0;resizeLast=0;collapsible=1;marginBottom=0;whiteSpace=wrap;html=1;" parent="1" vertex="1">
          <mxGeometry x="120" y="-330" width="140" height="78" as="geometry" />
        </mxCell>
        <mxCell id="LgkqM_oCLmh2W4dwjlVm-50" value="id_type_user" style="text;strokeColor=none;fillColor=none;align=left;verticalAlign=top;spacingLeft=4;spacingRight=4;overflow=hidden;rotatable=0;points=[[0,0.5],[1,0.5]];portConstraint=eastwest;whiteSpace=wrap;html=1;" parent="LgkqM_oCLmh2W4dwjlVm-49" vertex="1">
          <mxGeometry y="26" width="140" height="26" as="geometry" />
        </mxCell>
        <mxCell id="LgkqM_oCLmh2W4dwjlVm-51" value="label" style="text;strokeColor=none;fillColor=none;align=left;verticalAlign=top;spacingLeft=4;spacingRight=4;overflow=hidden;rotatable=0;points=[[0,0.5],[1,0.5]];portConstraint=eastwest;whiteSpace=wrap;html=1;" parent="LgkqM_oCLmh2W4dwjlVm-49" vertex="1">
          <mxGeometry y="52" width="140" height="26" as="geometry" />
        </mxCell>
        <mxCell id="LgkqM_oCLmh2W4dwjlVm-76" value="" style="edgeStyle=orthogonalEdgeStyle;rounded=0;orthogonalLoop=1;jettySize=auto;html=1;endArrow=none;endFill=0;" parent="1" source="LgkqM_oCLmh2W4dwjlVm-5" target="LgkqM_oCLmh2W4dwjlVm-75" edge="1">
          <mxGeometry relative="1" as="geometry">
            <mxPoint x="190" y="60" as="sourcePoint" />
            <mxPoint x="190" y="-252" as="targetPoint" />
          </mxGeometry>
        </mxCell>
        <mxCell id="LgkqM_oCLmh2W4dwjlVm-77" value="1,1" style="edgeLabel;html=1;align=center;verticalAlign=middle;resizable=0;points=[];" parent="LgkqM_oCLmh2W4dwjlVm-76" vertex="1" connectable="0">
          <mxGeometry x="-0.8952" y="1" relative="1" as="geometry">
            <mxPoint x="1" y="-72" as="offset" />
          </mxGeometry>
        </mxCell>
        <mxCell id="LgkqM_oCLmh2W4dwjlVm-75" value="&lt;div style=&quot;&quot;&gt;have&lt;/div&gt;" style="shape=lineEllipse;perimeter=ellipsePerimeter;whiteSpace=wrap;html=1;backgroundOutline=1;align=center;fillColor=#dae8fc;strokeColor=#6c8ebf;" parent="1" vertex="1">
          <mxGeometry x="150" y="-150" width="80" height="60" as="geometry" />
        </mxCell>
        <mxCell id="LgkqM_oCLmh2W4dwjlVm-83" value="" style="edgeStyle=orthogonalEdgeStyle;rounded=0;orthogonalLoop=1;jettySize=auto;html=1;endArrow=none;endFill=0;" parent="1" source="LgkqM_oCLmh2W4dwjlVm-5" target="LgkqM_oCLmh2W4dwjlVm-82" edge="1">
          <mxGeometry relative="1" as="geometry">
            <mxPoint x="120" y="138" as="sourcePoint" />
            <mxPoint x="-310" y="165" as="targetPoint" />
          </mxGeometry>
        </mxCell>
        <mxCell id="LgkqM_oCLmh2W4dwjlVm-84" value="1,1" style="edgeLabel;html=1;align=center;verticalAlign=middle;resizable=0;points=[];" parent="LgkqM_oCLmh2W4dwjlVm-83" vertex="1" connectable="0">
          <mxGeometry x="-0.8117" y="-2" relative="1" as="geometry">
            <mxPoint x="-76" y="4" as="offset" />
          </mxGeometry>
        </mxCell>
        <mxCell id="LgkqM_oCLmh2W4dwjlVm-82" value="&lt;div style=&quot;&quot;&gt;have&lt;/div&gt;" style="shape=lineEllipse;perimeter=ellipsePerimeter;whiteSpace=wrap;html=1;backgroundOutline=1;align=center;fillColor=#dae8fc;strokeColor=#6c8ebf;" parent="1" vertex="1">
          <mxGeometry x="-160" y="108" width="80" height="60" as="geometry" />
        </mxCell>
        <mxCell id="LgkqM_oCLmh2W4dwjlVm-87" value="" style="rounded=0;orthogonalLoop=1;jettySize=auto;html=1;endArrow=none;endFill=0;" parent="1" source="LgkqM_oCLmh2W4dwjlVm-5" target="LgkqM_oCLmh2W4dwjlVm-86" edge="1">
          <mxGeometry relative="1" as="geometry">
            <mxPoint x="120" y="170" as="sourcePoint" />
            <mxPoint x="-40" y="450" as="targetPoint" />
          </mxGeometry>
        </mxCell>
        <mxCell id="LgkqM_oCLmh2W4dwjlVm-88" value="1,1" style="edgeLabel;html=1;align=center;verticalAlign=middle;resizable=0;points=[];" parent="LgkqM_oCLmh2W4dwjlVm-87" vertex="1" connectable="0">
          <mxGeometry x="-0.8807" relative="1" as="geometry">
            <mxPoint x="-34" y="24" as="offset" />
          </mxGeometry>
        </mxCell>
        <mxCell id="LgkqM_oCLmh2W4dwjlVm-90" style="rounded=0;orthogonalLoop=1;jettySize=auto;html=1;edgeStyle=orthogonalEdgeStyle;endArrow=none;endFill=0;" parent="1" source="LgkqM_oCLmh2W4dwjlVm-86" target="LgkqM_oCLmh2W4dwjlVm-17" edge="1">
          <mxGeometry relative="1" as="geometry" />
        </mxCell>
        <mxCell id="LgkqM_oCLmh2W4dwjlVm-91" value="0,1" style="edgeLabel;html=1;align=center;verticalAlign=middle;resizable=0;points=[];" parent="LgkqM_oCLmh2W4dwjlVm-90" vertex="1" connectable="0">
          <mxGeometry x="0.0876" y="-1" relative="1" as="geometry">
            <mxPoint as="offset" />
          </mxGeometry>
        </mxCell>
        <mxCell id="LgkqM_oCLmh2W4dwjlVm-86" value="&lt;div style=&quot;&quot;&gt;are&lt;/div&gt;" style="shape=lineEllipse;perimeter=ellipsePerimeter;whiteSpace=wrap;html=1;backgroundOutline=1;align=center;fillColor=#dae8fc;strokeColor=#6c8ebf;" parent="1" vertex="1">
          <mxGeometry x="-50" y="250" width="80" height="60" as="geometry" />
        </mxCell>
        <mxCell id="LgkqM_oCLmh2W4dwjlVm-94" value="" style="rounded=0;orthogonalLoop=1;jettySize=auto;html=1;endArrow=none;endFill=0;" parent="1" source="LgkqM_oCLmh2W4dwjlVm-5" target="LgkqM_oCLmh2W4dwjlVm-93" edge="1">
          <mxGeometry relative="1" as="geometry">
            <mxPoint x="190" y="216" as="sourcePoint" />
            <mxPoint x="180" y="450" as="targetPoint" />
          </mxGeometry>
        </mxCell>
        <mxCell id="8m1eBf0mdChbJ9N2UT9T-5" value="1,1" style="edgeLabel;html=1;align=center;verticalAlign=middle;resizable=0;points=[];" vertex="1" connectable="0" parent="LgkqM_oCLmh2W4dwjlVm-94">
          <mxGeometry x="-0.0949" y="3" relative="1" as="geometry">
            <mxPoint as="offset" />
          </mxGeometry>
        </mxCell>
        <mxCell id="LgkqM_oCLmh2W4dwjlVm-93" value="&lt;div style=&quot;&quot;&gt;are&lt;/div&gt;" style="shape=lineEllipse;perimeter=ellipsePerimeter;whiteSpace=wrap;html=1;backgroundOutline=1;align=center;fillColor=#dae8fc;strokeColor=#6c8ebf;" parent="1" vertex="1">
          <mxGeometry x="90" y="329" width="80" height="60" as="geometry" />
        </mxCell>
        <mxCell id="LgkqM_oCLmh2W4dwjlVm-96" value="" style="rounded=0;orthogonalLoop=1;jettySize=auto;html=1;endArrow=none;endFill=0;" parent="1" source="LgkqM_oCLmh2W4dwjlVm-5" target="LgkqM_oCLmh2W4dwjlVm-95" edge="1">
          <mxGeometry relative="1" as="geometry">
            <mxPoint x="260" y="138" as="sourcePoint" />
            <mxPoint x="413" y="440" as="targetPoint" />
          </mxGeometry>
        </mxCell>
        <mxCell id="LgkqM_oCLmh2W4dwjlVm-97" value="1" style="edgeLabel;html=1;align=center;verticalAlign=middle;resizable=0;points=[];" parent="LgkqM_oCLmh2W4dwjlVm-96" vertex="1" connectable="0">
          <mxGeometry x="-0.9037" relative="1" as="geometry">
            <mxPoint x="49" as="offset" />
          </mxGeometry>
        </mxCell>
        <mxCell id="8m1eBf0mdChbJ9N2UT9T-4" value="1,1&lt;br&gt;" style="edgeLabel;html=1;align=center;verticalAlign=middle;resizable=0;points=[];" vertex="1" connectable="0" parent="LgkqM_oCLmh2W4dwjlVm-96">
          <mxGeometry x="-0.2396" relative="1" as="geometry">
            <mxPoint as="offset" />
          </mxGeometry>
        </mxCell>
        <mxCell id="LgkqM_oCLmh2W4dwjlVm-95" value="&lt;div style=&quot;&quot;&gt;are&lt;/div&gt;" style="shape=lineEllipse;perimeter=ellipsePerimeter;whiteSpace=wrap;html=1;backgroundOutline=1;align=center;fillColor=#dae8fc;strokeColor=#6c8ebf;" parent="1" vertex="1">
          <mxGeometry x="420" y="108" width="80" height="60" as="geometry" />
        </mxCell>
        <mxCell id="LgkqM_oCLmh2W4dwjlVm-100" value="" style="rounded=0;orthogonalLoop=1;jettySize=auto;html=1;endArrow=none;endFill=0;" parent="1" source="LgkqM_oCLmh2W4dwjlVm-20" target="LgkqM_oCLmh2W4dwjlVm-99" edge="1">
          <mxGeometry relative="1" as="geometry">
            <mxPoint x="-260" y="682" as="sourcePoint" />
            <mxPoint x="-110" y="910" as="targetPoint" />
          </mxGeometry>
        </mxCell>
        <mxCell id="8m1eBf0mdChbJ9N2UT9T-14" value="1,n" style="edgeLabel;html=1;align=center;verticalAlign=middle;resizable=0;points=[];" vertex="1" connectable="0" parent="LgkqM_oCLmh2W4dwjlVm-100">
          <mxGeometry x="-0.0172" y="1" relative="1" as="geometry">
            <mxPoint as="offset" />
          </mxGeometry>
        </mxCell>
        <mxCell id="LgkqM_oCLmh2W4dwjlVm-99" value="&lt;div style=&quot;&quot;&gt;in&lt;/div&gt;" style="shape=lineEllipse;perimeter=ellipsePerimeter;whiteSpace=wrap;html=1;backgroundOutline=1;align=center;fillColor=#dae8fc;strokeColor=#6c8ebf;" parent="1" vertex="1">
          <mxGeometry x="380" y="985" width="80" height="60" as="geometry" />
        </mxCell>
        <mxCell id="LgkqM_oCLmh2W4dwjlVm-104" value="" style="edgeStyle=orthogonalEdgeStyle;rounded=0;orthogonalLoop=1;jettySize=auto;html=1;endArrow=none;endFill=0;" parent="1" source="LgkqM_oCLmh2W4dwjlVm-29" target="LgkqM_oCLmh2W4dwjlVm-103" edge="1">
          <mxGeometry relative="1" as="geometry">
            <mxPoint x="-40" y="975" as="sourcePoint" />
            <mxPoint x="370" y="891" as="targetPoint" />
          </mxGeometry>
        </mxCell>
        <mxCell id="LgkqM_oCLmh2W4dwjlVm-105" value="1,n" style="edgeLabel;html=1;align=center;verticalAlign=middle;resizable=0;points=[];" parent="LgkqM_oCLmh2W4dwjlVm-104" vertex="1" connectable="0">
          <mxGeometry x="-0.839" y="2" relative="1" as="geometry">
            <mxPoint x="-65" y="-2" as="offset" />
          </mxGeometry>
        </mxCell>
        <mxCell id="LgkqM_oCLmh2W4dwjlVm-103" value="&lt;div style=&quot;&quot;&gt;have&lt;/div&gt;" style="shape=lineEllipse;perimeter=ellipsePerimeter;whiteSpace=wrap;html=1;backgroundOutline=1;align=center;fillColor=#dae8fc;strokeColor=#6c8ebf;" parent="1" vertex="1">
          <mxGeometry x="-210" y="985" width="80" height="60" as="geometry" />
        </mxCell>
        <mxCell id="LgkqM_oCLmh2W4dwjlVm-109" style="edgeStyle=orthogonalEdgeStyle;rounded=0;orthogonalLoop=1;jettySize=auto;html=1;endArrow=none;endFill=0;" parent="1" source="LgkqM_oCLmh2W4dwjlVm-107" target="LgkqM_oCLmh2W4dwjlVm-39" edge="1">
          <mxGeometry relative="1" as="geometry" />
        </mxCell>
        <mxCell id="8m1eBf0mdChbJ9N2UT9T-19" value="0,n" style="edgeLabel;html=1;align=center;verticalAlign=middle;resizable=0;points=[];" vertex="1" connectable="0" parent="LgkqM_oCLmh2W4dwjlVm-109">
          <mxGeometry x="-0.2167" y="-2" relative="1" as="geometry">
            <mxPoint as="offset" />
          </mxGeometry>
        </mxCell>
        <mxCell id="LgkqM_oCLmh2W4dwjlVm-107" value="&lt;div style=&quot;&quot;&gt;write&lt;/div&gt;" style="shape=lineEllipse;perimeter=ellipsePerimeter;whiteSpace=wrap;html=1;backgroundOutline=1;align=center;fillColor=#dae8fc;strokeColor=#6c8ebf;" parent="1" vertex="1">
          <mxGeometry x="-370" y="510" width="80" height="60" as="geometry" />
        </mxCell>
        <mxCell id="LgkqM_oCLmh2W4dwjlVm-115" style="rounded=0;orthogonalLoop=1;jettySize=auto;html=1;endArrow=none;endFill=0;" parent="1" source="LgkqM_oCLmh2W4dwjlVm-113" target="LgkqM_oCLmh2W4dwjlVm-39" edge="1">
          <mxGeometry relative="1" as="geometry" />
        </mxCell>
        <mxCell id="8m1eBf0mdChbJ9N2UT9T-18" value="0,n" style="edgeLabel;html=1;align=center;verticalAlign=middle;resizable=0;points=[];" vertex="1" connectable="0" parent="LgkqM_oCLmh2W4dwjlVm-115">
          <mxGeometry x="0.3263" relative="1" as="geometry">
            <mxPoint as="offset" />
          </mxGeometry>
        </mxCell>
        <mxCell id="LgkqM_oCLmh2W4dwjlVm-113" value="&lt;div style=&quot;&quot;&gt;consult&lt;/div&gt;" style="shape=lineEllipse;perimeter=ellipsePerimeter;whiteSpace=wrap;html=1;backgroundOutline=1;align=center;fillColor=#dae8fc;strokeColor=#6c8ebf;" parent="1" vertex="1">
          <mxGeometry x="-110" y="630" width="80" height="60" as="geometry" />
        </mxCell>
        <mxCell id="LgkqM_oCLmh2W4dwjlVm-119" style="edgeStyle=orthogonalEdgeStyle;rounded=0;orthogonalLoop=1;jettySize=auto;html=1;endArrow=none;endFill=0;" parent="1" source="LgkqM_oCLmh2W4dwjlVm-116" target="LgkqM_oCLmh2W4dwjlVm-29" edge="1">
          <mxGeometry relative="1" as="geometry" />
        </mxCell>
        <mxCell id="8m1eBf0mdChbJ9N2UT9T-16" value="1,1" style="edgeLabel;html=1;align=center;verticalAlign=middle;resizable=0;points=[];" vertex="1" connectable="0" parent="LgkqM_oCLmh2W4dwjlVm-119">
          <mxGeometry x="-0.0156" y="2" relative="1" as="geometry">
            <mxPoint as="offset" />
          </mxGeometry>
        </mxCell>
        <mxCell id="LgkqM_oCLmh2W4dwjlVm-116" value="&lt;div style=&quot;&quot;&gt;CRUD&lt;/div&gt;" style="shape=lineEllipse;perimeter=ellipsePerimeter;whiteSpace=wrap;html=1;backgroundOutline=1;align=center;fillColor=#dae8fc;strokeColor=#6c8ebf;" parent="1" vertex="1">
          <mxGeometry x="90" y="740" width="80" height="60" as="geometry" />
        </mxCell>
        <mxCell id="LgkqM_oCLmh2W4dwjlVm-130" style="edgeStyle=orthogonalEdgeStyle;rounded=0;orthogonalLoop=1;jettySize=auto;html=1;endArrow=none;endFill=0;" parent="1" source="LgkqM_oCLmh2W4dwjlVm-120" target="LgkqM_oCLmh2W4dwjlVm-126" edge="1">
          <mxGeometry relative="1" as="geometry" />
        </mxCell>
        <mxCell id="8m1eBf0mdChbJ9N2UT9T-3" value="1,1" style="edgeLabel;html=1;align=center;verticalAlign=middle;resizable=0;points=[];" vertex="1" connectable="0" parent="LgkqM_oCLmh2W4dwjlVm-130">
          <mxGeometry x="0.1186" relative="1" as="geometry">
            <mxPoint as="offset" />
          </mxGeometry>
        </mxCell>
        <mxCell id="LgkqM_oCLmh2W4dwjlVm-120" value="Service" style="swimlane;fontStyle=0;childLayout=stackLayout;horizontal=1;startSize=26;fillColor=none;horizontalStack=0;resizeParent=1;resizeParentMax=0;resizeLast=0;collapsible=1;marginBottom=0;whiteSpace=wrap;html=1;" parent="1" vertex="1">
          <mxGeometry x="413" y="260" width="140" height="104" as="geometry" />
        </mxCell>
        <mxCell id="LgkqM_oCLmh2W4dwjlVm-121" value="id_service" style="text;strokeColor=none;fillColor=none;align=left;verticalAlign=top;spacingLeft=4;spacingRight=4;overflow=hidden;rotatable=0;points=[[0,0.5],[1,0.5]];portConstraint=eastwest;whiteSpace=wrap;html=1;" parent="LgkqM_oCLmh2W4dwjlVm-120" vertex="1">
          <mxGeometry y="26" width="140" height="26" as="geometry" />
        </mxCell>
        <mxCell id="LgkqM_oCLmh2W4dwjlVm-122" value="name" style="text;strokeColor=none;fillColor=none;align=left;verticalAlign=top;spacingLeft=4;spacingRight=4;overflow=hidden;rotatable=0;points=[[0,0.5],[1,0.5]];portConstraint=eastwest;whiteSpace=wrap;html=1;" parent="LgkqM_oCLmh2W4dwjlVm-120" vertex="1">
          <mxGeometry y="52" width="140" height="26" as="geometry" />
        </mxCell>
        <mxCell id="LgkqM_oCLmh2W4dwjlVm-123" value="description" style="text;strokeColor=none;fillColor=none;align=left;verticalAlign=top;spacingLeft=4;spacingRight=4;overflow=hidden;rotatable=0;points=[[0,0.5],[1,0.5]];portConstraint=eastwest;whiteSpace=wrap;html=1;" parent="LgkqM_oCLmh2W4dwjlVm-120" vertex="1">
          <mxGeometry y="78" width="140" height="26" as="geometry" />
        </mxCell>
        <mxCell id="LgkqM_oCLmh2W4dwjlVm-126" value="&lt;div style=&quot;&quot;&gt;CRUD&lt;/div&gt;" style="shape=lineEllipse;perimeter=ellipsePerimeter;whiteSpace=wrap;html=1;backgroundOutline=1;align=center;fillColor=#dae8fc;strokeColor=#6c8ebf;" parent="1" vertex="1">
          <mxGeometry x="300" y="420" width="80" height="60" as="geometry" />
        </mxCell>
        <mxCell id="LgkqM_oCLmh2W4dwjlVm-129" style="edgeStyle=orthogonalEdgeStyle;rounded=0;orthogonalLoop=1;jettySize=auto;html=1;endArrow=none;endFill=0;" parent="1" source="LgkqM_oCLmh2W4dwjlVm-127" target="LgkqM_oCLmh2W4dwjlVm-11" edge="1">
          <mxGeometry relative="1" as="geometry" />
        </mxCell>
        <mxCell id="8m1eBf0mdChbJ9N2UT9T-7" value="0,n" style="edgeLabel;html=1;align=center;verticalAlign=middle;resizable=0;points=[];" vertex="1" connectable="0" parent="LgkqM_oCLmh2W4dwjlVm-129">
          <mxGeometry x="0.0198" y="-2" relative="1" as="geometry">
            <mxPoint as="offset" />
          </mxGeometry>
        </mxCell>
        <mxCell id="LgkqM_oCLmh2W4dwjlVm-127" value="modifi" style="shape=lineEllipse;perimeter=ellipsePerimeter;whiteSpace=wrap;html=1;backgroundOutline=1;align=center;fillColor=#dae8fc;strokeColor=#6c8ebf;" parent="1" vertex="1">
          <mxGeometry x="680" y="269" width="80" height="60" as="geometry" />
        </mxCell>
        <mxCell id="LgkqM_oCLmh2W4dwjlVm-128" style="edgeStyle=orthogonalEdgeStyle;rounded=0;orthogonalLoop=1;jettySize=auto;html=1;endArrow=none;endFill=0;" parent="1" source="LgkqM_oCLmh2W4dwjlVm-121" target="LgkqM_oCLmh2W4dwjlVm-127" edge="1">
          <mxGeometry relative="1" as="geometry" />
        </mxCell>
        <mxCell id="8m1eBf0mdChbJ9N2UT9T-6" value="1,1" style="edgeLabel;html=1;align=center;verticalAlign=middle;resizable=0;points=[];" vertex="1" connectable="0" parent="LgkqM_oCLmh2W4dwjlVm-128">
          <mxGeometry x="-0.2176" y="1" relative="1" as="geometry">
            <mxPoint as="offset" />
          </mxGeometry>
        </mxCell>
        <mxCell id="LgkqM_oCLmh2W4dwjlVm-131" style="edgeStyle=orthogonalEdgeStyle;rounded=0;orthogonalLoop=1;jettySize=auto;html=1;endArrow=none;endFill=0;" parent="1" source="LgkqM_oCLmh2W4dwjlVm-47" target="LgkqM_oCLmh2W4dwjlVm-126" edge="1">
          <mxGeometry relative="1" as="geometry" />
        </mxCell>
        <mxCell id="8m1eBf0mdChbJ9N2UT9T-2" value="1,n" style="edgeLabel;html=1;align=center;verticalAlign=middle;resizable=0;points=[];" vertex="1" connectable="0" parent="LgkqM_oCLmh2W4dwjlVm-131">
          <mxGeometry x="-0.3682" y="-3" relative="1" as="geometry">
            <mxPoint as="offset" />
          </mxGeometry>
        </mxCell>
        <mxCell id="LgkqM_oCLmh2W4dwjlVm-134" style="edgeStyle=orthogonalEdgeStyle;rounded=0;orthogonalLoop=1;jettySize=auto;html=1;endArrow=none;endFill=0;" parent="1" source="LgkqM_oCLmh2W4dwjlVm-132" target="LgkqM_oCLmh2W4dwjlVm-20" edge="1">
          <mxGeometry relative="1" as="geometry" />
        </mxCell>
        <mxCell id="8m1eBf0mdChbJ9N2UT9T-11" value="1,1" style="edgeLabel;html=1;align=center;verticalAlign=middle;resizable=0;points=[];" vertex="1" connectable="0" parent="LgkqM_oCLmh2W4dwjlVm-134">
          <mxGeometry x="-0.2722" y="1" relative="1" as="geometry">
            <mxPoint as="offset" />
          </mxGeometry>
        </mxCell>
        <mxCell id="LgkqM_oCLmh2W4dwjlVm-132" value="&lt;div style=&quot;&quot;&gt;CRUD&lt;/div&gt;" style="shape=lineEllipse;perimeter=ellipsePerimeter;whiteSpace=wrap;html=1;backgroundOutline=1;align=center;fillColor=#dae8fc;strokeColor=#6c8ebf;" parent="1" vertex="1">
          <mxGeometry x="300" y="690" width="80" height="60" as="geometry" />
        </mxCell>
        <mxCell id="LgkqM_oCLmh2W4dwjlVm-133" style="rounded=0;orthogonalLoop=1;jettySize=auto;html=1;endArrow=none;endFill=0;" parent="1" source="LgkqM_oCLmh2W4dwjlVm-48" target="LgkqM_oCLmh2W4dwjlVm-132" edge="1">
          <mxGeometry relative="1" as="geometry" />
        </mxCell>
        <mxCell id="8m1eBf0mdChbJ9N2UT9T-10" value="1,n" style="edgeLabel;html=1;align=center;verticalAlign=middle;resizable=0;points=[];" vertex="1" connectable="0" parent="LgkqM_oCLmh2W4dwjlVm-133">
          <mxGeometry x="0.0283" y="2" relative="1" as="geometry">
            <mxPoint as="offset" />
          </mxGeometry>
        </mxCell>
        <mxCell id="LgkqM_oCLmh2W4dwjlVm-137" value="" style="edgeStyle=orthogonalEdgeStyle;rounded=0;orthogonalLoop=1;jettySize=auto;html=1;endArrow=none;endFill=0;" parent="1" source="LgkqM_oCLmh2W4dwjlVm-17" target="LgkqM_oCLmh2W4dwjlVm-136" edge="1">
          <mxGeometry relative="1" as="geometry">
            <mxPoint x="-483" y="138" as="sourcePoint" />
            <mxPoint x="553" y="896" as="targetPoint" />
            <Array as="points">
              <mxPoint x="-560" y="400" />
            </Array>
          </mxGeometry>
        </mxCell>
        <mxCell id="8m1eBf0mdChbJ9N2UT9T-8" value="0,n" style="edgeLabel;html=1;align=center;verticalAlign=middle;resizable=0;points=[];" vertex="1" connectable="0" parent="LgkqM_oCLmh2W4dwjlVm-137">
          <mxGeometry x="-0.0249" relative="1" as="geometry">
            <mxPoint as="offset" />
          </mxGeometry>
        </mxCell>
        <mxCell id="LgkqM_oCLmh2W4dwjlVm-136" value="&lt;div style=&quot;&quot;&gt;comment&lt;/div&gt;" style="shape=lineEllipse;perimeter=ellipsePerimeter;whiteSpace=wrap;html=1;backgroundOutline=1;align=center;fillColor=#dae8fc;strokeColor=#6c8ebf;" parent="1" vertex="1">
          <mxGeometry x="-610" y="1060" width="80" height="60" as="geometry" />
        </mxCell>
      </root>
    </mxGraphModel>
  </diagram>
</mxfile>
